<svg width="206" height="55" viewBox="0 0 206 55" fill="none" xmlns="http://www.w3.org/2000/svg">
<path d="M51.4215 36.8496L49.6815 50.9996H48.8115L50.3015 38.9096C50.3215 38.7429 50.3515 38.5663 50.3915 38.3796L44.0915 48.2796C43.9848 48.4463 43.8482 48.5296 43.6815 48.5296H43.5215C43.3415 48.5296 43.2248 48.4463 43.1715 48.2796L39.1515 38.3496C39.1515 38.5496 39.1415 38.7329 39.1215 38.8996L37.6415 50.9996H36.7715L38.5115 36.8496H39.1915C39.2848 36.8496 39.3548 36.8629 39.4015 36.8896C39.4482 36.9096 39.4981 36.9596 39.5515 37.0396L43.5915 46.9996C43.6182 47.0729 43.6415 47.1496 43.6615 47.2296C43.6815 47.3029 43.7015 47.3796 43.7215 47.4596C43.7882 47.3129 43.8682 47.1596 43.9615 46.9996L50.3415 37.0396C50.4082 36.9596 50.4648 36.9096 50.5115 36.8896C50.5648 36.8629 50.6381 36.8496 50.7315 36.8496H51.4215Z" fill="black"/>
<path d="M61.573 41.0496L54.663 54.2396C54.5697 54.4263 54.433 54.5196 54.253 54.5196H53.583L55.683 50.6196L53.013 41.0496H53.753C53.8464 41.0496 53.9164 41.0729 53.963 41.1196C54.0097 41.1596 54.0397 41.2163 54.053 41.2896L56.153 49.0296C56.1797 49.1296 56.1964 49.2296 56.203 49.3296C56.2164 49.4296 56.2297 49.5296 56.243 49.6296C56.283 49.5296 56.3264 49.4296 56.373 49.3296C56.4197 49.2296 56.4664 49.1296 56.513 49.0296L60.523 41.2596C60.5564 41.1863 60.603 41.1329 60.663 41.0996C60.723 41.0663 60.783 41.0496 60.843 41.0496H61.573Z" fill="black"/>
<path d="M74.0493 49.1796C73.696 49.5729 73.3593 49.8963 73.0393 50.1496C72.726 50.4029 72.416 50.6029 72.1093 50.7496C71.8093 50.8963 71.5026 50.9963 71.1893 51.0496C70.876 51.1029 70.5426 51.1296 70.1893 51.1296C69.616 51.1296 69.116 51.0329 68.6893 50.8396C68.2693 50.6396 67.9193 50.3629 67.6393 50.0096C67.3593 49.6563 67.1493 49.2363 67.0093 48.7496C66.8693 48.2629 66.7993 47.7329 66.7993 47.1596C66.7993 46.6329 66.8526 46.1129 66.9593 45.5996C67.0726 45.0796 67.2326 44.5863 67.4393 44.1196C67.646 43.6529 67.896 43.2229 68.1893 42.8296C68.4826 42.4363 68.8126 42.0963 69.1793 41.8096C69.546 41.5229 69.9426 41.2996 70.3693 41.1396C70.8026 40.9729 71.2626 40.8896 71.7493 40.8896C72.076 40.8896 72.3693 40.9229 72.6293 40.9896C72.896 41.0496 73.1393 41.1396 73.3593 41.2596C73.5793 41.3729 73.7793 41.5129 73.9593 41.6796C74.1393 41.8463 74.306 42.0329 74.4593 42.2396L74.1793 42.5696C74.1193 42.6429 74.0493 42.6796 73.9693 42.6796C73.9026 42.6796 73.8193 42.6263 73.7193 42.5196C73.626 42.4129 73.496 42.2996 73.3293 42.1796C73.1693 42.0529 72.9593 41.9363 72.6993 41.8296C72.4393 41.7229 72.1126 41.6696 71.7193 41.6696C71.1593 41.6696 70.636 41.8196 70.1493 42.1196C69.6693 42.4196 69.2493 42.8229 68.8893 43.3296C68.536 43.8363 68.256 44.4229 68.0493 45.0896C67.8493 45.7496 67.7493 46.4396 67.7493 47.1596C67.7493 47.6196 67.7993 48.0463 67.8993 48.4396C68.006 48.8329 68.166 49.1729 68.3793 49.4596C68.5993 49.7463 68.8726 49.9696 69.1993 50.1296C69.526 50.2896 69.9126 50.3696 70.3593 50.3696C70.7126 50.3696 71.0293 50.3329 71.3093 50.2596C71.5893 50.1796 71.836 50.0829 72.0493 49.9696C72.2693 49.8563 72.4593 49.7329 72.6193 49.5996C72.786 49.4596 72.9326 49.3329 73.0593 49.2196C73.186 49.1063 73.2926 49.0129 73.3793 48.9396C73.4726 48.8596 73.556 48.8196 73.6293 48.8196C73.7026 48.8196 73.7726 48.8529 73.8393 48.9196L74.0493 49.1796Z" fill="black"/>
<path d="M84.3909 41.0496L83.1909 50.9996H82.7509C82.6242 50.9996 82.5309 50.9663 82.4709 50.8996C82.4175 50.8329 82.3909 50.7429 82.3909 50.6296L82.6909 47.7996C82.4175 48.3263 82.1175 48.7963 81.7909 49.2096C81.4642 49.6229 81.1175 49.9729 80.7509 50.2596C80.3909 50.5396 80.0142 50.7563 79.6209 50.9096C79.2342 51.0563 78.8475 51.1296 78.4609 51.1296C77.6075 51.1296 76.9975 50.8029 76.6309 50.1496C76.2642 49.4896 76.1542 48.5663 76.3009 47.3796L77.0509 41.0496H77.9909L77.2409 47.3796C77.1275 48.3329 77.1909 49.0663 77.4309 49.5796C77.6709 50.0863 78.1209 50.3396 78.7809 50.3396C79.1475 50.3396 79.5175 50.2463 79.8909 50.0596C80.2709 49.8729 80.6375 49.6063 80.9909 49.2596C81.3442 48.9063 81.6775 48.4863 81.9909 47.9996C82.3042 47.5063 82.5809 46.9529 82.8209 46.3396L83.4509 41.0496H84.3909Z" fill="black"/>
<path d="M92.4234 42.2696C92.37 42.3629 92.2967 42.4096 92.2034 42.4096C92.1367 42.4096 92.0534 42.3696 91.9534 42.2896C91.86 42.2029 91.73 42.1096 91.5634 42.0096C91.4034 41.9029 91.2 41.8096 90.9534 41.7296C90.7067 41.6429 90.4 41.5996 90.0334 41.5996C89.6934 41.5996 89.37 41.6563 89.0634 41.7696C88.7634 41.8829 88.5 42.0363 88.2734 42.2296C88.0534 42.4163 87.8767 42.6363 87.7434 42.8896C87.6167 43.1363 87.5534 43.3996 87.5534 43.6796C87.5534 43.9529 87.6167 44.1829 87.7434 44.3696C87.87 44.5563 88.0367 44.7196 88.2434 44.8596C88.4567 44.9929 88.6934 45.1096 88.9534 45.2096C89.22 45.3096 89.4934 45.4096 89.7734 45.5096C90.0534 45.6096 90.3234 45.7229 90.5834 45.8496C90.85 45.9696 91.0867 46.1163 91.2934 46.2896C91.5067 46.4629 91.6767 46.6763 91.8034 46.9296C91.93 47.1763 91.9934 47.4763 91.9934 47.8296C91.9934 48.2563 91.9067 48.6696 91.7334 49.0696C91.5667 49.4696 91.3234 49.8263 91.0034 50.1396C90.69 50.4463 90.31 50.6929 89.8634 50.8796C89.4234 51.0663 88.93 51.1596 88.3834 51.1596C87.7434 51.1596 87.2034 51.0496 86.7634 50.8296C86.33 50.6029 85.9567 50.3096 85.6434 49.9496L85.8834 49.6096C85.9567 49.5029 86.0467 49.4496 86.1534 49.4496C86.22 49.4496 86.3034 49.5029 86.4034 49.6096C86.5034 49.7163 86.64 49.8363 86.8134 49.9696C86.9867 50.0963 87.21 50.2129 87.4834 50.3196C87.7567 50.4263 88.1 50.4796 88.5134 50.4796C88.9134 50.4796 89.2734 50.4163 89.5934 50.2896C89.92 50.1563 90.1967 49.9763 90.4234 49.7496C90.6567 49.5229 90.8367 49.2629 90.9634 48.9696C91.09 48.6696 91.1534 48.3529 91.1534 48.0196C91.1534 47.7263 91.09 47.4796 90.9634 47.2796C90.8367 47.0796 90.6667 46.9096 90.4534 46.7696C90.2467 46.6229 90.01 46.4996 89.7434 46.3996C89.4834 46.2996 89.2134 46.2029 88.9334 46.1096C88.6534 46.0096 88.38 45.9029 88.1134 45.7896C87.8534 45.6696 87.6167 45.5263 87.4034 45.3596C87.1967 45.1929 87.03 44.9896 86.9034 44.7496C86.7767 44.5096 86.7134 44.2163 86.7134 43.8696C86.7134 43.4829 86.7967 43.1129 86.9634 42.7596C87.13 42.3996 87.3634 42.0829 87.6634 41.8096C87.9634 41.5296 88.32 41.3096 88.7334 41.1496C89.1534 40.9829 89.61 40.8996 90.1034 40.8996C90.6634 40.8996 91.1467 40.9863 91.5534 41.1596C91.9667 41.3329 92.3334 41.5929 92.6534 41.9396L92.4234 42.2696Z" fill="black"/>
<path d="M94.8349 49.3296C94.8349 49.2896 94.8349 49.2396 94.8349 49.1796C94.8416 49.1196 94.8483 49.0296 94.8549 48.9096C94.8683 48.7896 94.8849 48.6363 94.9049 48.4496C94.9249 48.2563 94.9549 48.0129 94.9949 47.7196L95.6749 42.0696H94.3649C94.2983 42.0696 94.2449 42.0496 94.2049 42.0096C94.1649 41.9696 94.1516 41.9129 94.1649 41.8396L94.2149 41.4696L95.7849 41.3496L96.4449 37.7896C96.4583 37.7296 96.4883 37.6763 96.5349 37.6296C96.5816 37.5829 96.6383 37.5596 96.7049 37.5596H97.1649L96.6949 41.3596H99.5749L99.4949 42.0696H96.6149L95.9249 47.6896C95.8916 47.9629 95.8616 48.1863 95.8349 48.3596C95.8149 48.5329 95.7983 48.6763 95.7849 48.7896C95.7783 48.8963 95.7716 48.9763 95.7649 49.0296C95.7649 49.0829 95.7649 49.1229 95.7649 49.1496C95.7649 49.5829 95.8649 49.8963 96.0649 50.0896C96.2716 50.2829 96.5349 50.3796 96.8549 50.3796C97.0749 50.3796 97.2683 50.3463 97.4349 50.2796C97.6083 50.2063 97.7583 50.1296 97.8849 50.0496C98.0116 49.9629 98.1149 49.8863 98.1949 49.8196C98.2749 49.7463 98.3349 49.7096 98.3749 49.7096C98.4416 49.7096 98.4916 49.7429 98.5249 49.8096L98.7049 50.2296C98.4383 50.5096 98.1149 50.7363 97.7349 50.9096C97.3549 51.0763 96.9749 51.1596 96.5949 51.1596C96.0483 51.1596 95.6182 51.0096 95.3049 50.7096C94.9982 50.4096 94.8416 49.9496 94.8349 49.3296Z" fill="black"/>
<path d="M104.297 50.3796C104.877 50.3796 105.404 50.2296 105.877 49.9296C106.357 49.6229 106.767 49.2196 107.107 48.7196C107.447 48.2129 107.707 47.6363 107.887 46.9896C108.074 46.3363 108.167 45.6663 108.167 44.9796C108.167 43.9129 107.93 43.0929 107.457 42.5196C106.984 41.9463 106.327 41.6596 105.487 41.6596C104.907 41.6596 104.377 41.8096 103.897 42.1096C103.424 42.4096 103.017 42.8096 102.677 43.3096C102.344 43.8029 102.084 44.3729 101.897 45.0196C101.71 45.6663 101.617 46.3396 101.617 47.0396C101.617 48.0996 101.85 48.9229 102.317 49.5096C102.79 50.0896 103.45 50.3796 104.297 50.3796ZM104.217 51.1296C103.684 51.1296 103.197 51.0363 102.757 50.8496C102.324 50.6629 101.95 50.3929 101.637 50.0396C101.33 49.6863 101.09 49.2596 100.917 48.7596C100.75 48.2529 100.667 47.6796 100.667 47.0396C100.667 46.2329 100.787 45.4596 101.027 44.7196C101.267 43.9796 101.604 43.3263 102.037 42.7596C102.477 42.1929 102.997 41.7429 103.597 41.4096C104.197 41.0696 104.857 40.8996 105.577 40.8996C106.11 40.8996 106.594 40.9929 107.027 41.1796C107.467 41.3663 107.84 41.6363 108.147 41.9896C108.46 42.3429 108.7 42.7729 108.867 43.2796C109.04 43.7796 109.127 44.3429 109.127 44.9696C109.127 45.7763 109.004 46.5496 108.757 47.2896C108.517 48.0296 108.18 48.6863 107.747 49.2596C107.314 49.8263 106.797 50.2796 106.197 50.6196C105.597 50.9596 104.937 51.1296 104.217 51.1296Z" fill="black"/>
<path d="M110.951 50.9996L112.151 41.0196H112.581C112.814 41.0196 112.931 41.1396 112.931 41.3796L112.651 44.1596C113.171 43.1263 113.771 42.3263 114.451 41.7596C115.131 41.1863 115.848 40.8996 116.601 40.8996C116.988 40.8996 117.308 40.9696 117.561 41.1096C117.814 41.2496 118.011 41.4563 118.151 41.7296C118.291 41.9963 118.381 42.3263 118.421 42.7196C118.461 43.1129 118.461 43.5629 118.421 44.0696C118.681 43.5363 118.964 43.0729 119.271 42.6796C119.584 42.2796 119.911 41.9496 120.251 41.6896C120.598 41.4229 120.951 41.2263 121.311 41.0996C121.671 40.9663 122.028 40.8996 122.381 40.8996C122.814 40.8996 123.171 40.9829 123.451 41.1496C123.738 41.3163 123.958 41.5596 124.111 41.8796C124.264 42.1996 124.354 42.5929 124.381 43.0596C124.414 43.5196 124.394 44.0463 124.321 44.6396L123.571 50.9996H122.641L123.391 44.6396C123.451 44.1663 123.474 43.7463 123.461 43.3796C123.454 43.0129 123.401 42.7063 123.301 42.4596C123.208 42.2063 123.061 42.0163 122.861 41.8896C122.668 41.7629 122.408 41.6996 122.081 41.6996C121.754 41.6996 121.421 41.7763 121.081 41.9296C120.748 42.0763 120.418 42.2996 120.091 42.5996C119.771 42.8996 119.464 43.2763 119.171 43.7296C118.884 44.1829 118.624 44.7163 118.391 45.3296L117.721 50.9996H116.791L117.541 44.6396C117.601 44.1663 117.631 43.7463 117.631 43.3796C117.631 43.0129 117.588 42.7063 117.501 42.4596C117.414 42.2063 117.274 42.0163 117.081 41.8896C116.894 41.7629 116.638 41.6996 116.311 41.6996C115.551 41.6996 114.848 42.0463 114.201 42.7396C113.561 43.4329 112.998 44.4129 112.511 45.6796L111.881 50.9996H110.951Z" fill="black"/>
<path d="M137.755 42.2696C137.702 42.3629 137.629 42.4096 137.535 42.4096C137.469 42.4096 137.385 42.3696 137.285 42.2896C137.192 42.2029 137.062 42.1096 136.895 42.0096C136.735 41.9029 136.532 41.8096 136.285 41.7296C136.039 41.6429 135.732 41.5996 135.365 41.5996C135.025 41.5996 134.702 41.6563 134.395 41.7696C134.095 41.8829 133.832 42.0363 133.605 42.2296C133.385 42.4163 133.209 42.6363 133.075 42.8896C132.949 43.1363 132.885 43.3996 132.885 43.6796C132.885 43.9529 132.949 44.1829 133.075 44.3696C133.202 44.5563 133.369 44.7196 133.575 44.8596C133.789 44.9929 134.025 45.1096 134.285 45.2096C134.552 45.3096 134.825 45.4096 135.105 45.5096C135.385 45.6096 135.655 45.7229 135.915 45.8496C136.182 45.9696 136.419 46.1163 136.625 46.2896C136.839 46.4629 137.009 46.6763 137.135 46.9296C137.262 47.1763 137.325 47.4763 137.325 47.8296C137.325 48.2563 137.239 48.6696 137.065 49.0696C136.899 49.4696 136.655 49.8263 136.335 50.1396C136.022 50.4463 135.642 50.6929 135.195 50.8796C134.755 51.0663 134.262 51.1596 133.715 51.1596C133.075 51.1596 132.535 51.0496 132.095 50.8296C131.662 50.6029 131.289 50.3096 130.975 49.9496L131.215 49.6096C131.289 49.5029 131.379 49.4496 131.485 49.4496C131.552 49.4496 131.635 49.5029 131.735 49.6096C131.835 49.7163 131.972 49.8363 132.145 49.9696C132.319 50.0963 132.542 50.2129 132.815 50.3196C133.089 50.4263 133.432 50.4796 133.845 50.4796C134.245 50.4796 134.605 50.4163 134.925 50.2896C135.252 50.1563 135.529 49.9763 135.755 49.7496C135.989 49.5229 136.169 49.2629 136.295 48.9696C136.422 48.6696 136.485 48.3529 136.485 48.0196C136.485 47.7263 136.422 47.4796 136.295 47.2796C136.169 47.0796 135.999 46.9096 135.785 46.7696C135.579 46.6229 135.342 46.4996 135.075 46.3996C134.815 46.2996 134.545 46.2029 134.265 46.1096C133.985 46.0096 133.712 45.9029 133.445 45.7896C133.185 45.6696 132.949 45.5263 132.735 45.3596C132.529 45.1929 132.362 44.9896 132.235 44.7496C132.109 44.5096 132.045 44.2163 132.045 43.8696C132.045 43.4829 132.129 43.1129 132.295 42.7596C132.462 42.3996 132.695 42.0829 132.995 41.8096C133.295 41.5296 133.652 41.3096 134.065 41.1496C134.485 40.9829 134.942 40.8996 135.435 40.8996C135.995 40.8996 136.479 40.9863 136.885 41.1596C137.299 41.3329 137.665 41.5929 137.985 41.9396L137.755 42.2696Z" fill="black"/>
<path d="M140.167 49.3296C140.167 49.2896 140.167 49.2396 140.167 49.1796C140.174 49.1196 140.18 49.0296 140.187 48.9096C140.2 48.7896 140.217 48.6363 140.237 48.4496C140.257 48.2563 140.287 48.0129 140.327 47.7196L141.007 42.0696H139.697C139.63 42.0696 139.577 42.0496 139.537 42.0096C139.497 41.9696 139.484 41.9129 139.497 41.8396L139.547 41.4696L141.117 41.3496L141.777 37.7896C141.79 37.7296 141.82 37.6763 141.867 37.6296C141.914 37.5829 141.97 37.5596 142.037 37.5596H142.497L142.027 41.3596H144.907L144.827 42.0696H141.947L141.257 47.6896C141.224 47.9629 141.194 48.1863 141.167 48.3596C141.147 48.5329 141.13 48.6763 141.117 48.7896C141.11 48.8963 141.104 48.9763 141.097 49.0296C141.097 49.0829 141.097 49.1229 141.097 49.1496C141.097 49.5829 141.197 49.8963 141.397 50.0896C141.604 50.2829 141.867 50.3796 142.187 50.3796C142.407 50.3796 142.6 50.3463 142.767 50.2796C142.94 50.2063 143.09 50.1296 143.217 50.0496C143.344 49.9629 143.447 49.8863 143.527 49.8196C143.607 49.7463 143.667 49.7096 143.707 49.7096C143.774 49.7096 143.824 49.7429 143.857 49.8096L144.037 50.2296C143.77 50.5096 143.447 50.7363 143.067 50.9096C142.687 51.0763 142.307 51.1596 141.927 51.1596C141.38 51.1596 140.95 51.0096 140.637 50.7096C140.33 50.4096 140.174 49.9496 140.167 49.3296Z" fill="black"/>
<path d="M153.198 41.8296C152.998 41.7563 152.791 41.7063 152.578 41.6796C152.364 41.6463 152.148 41.6296 151.928 41.6296C151.261 41.6296 150.624 41.7929 150.018 42.1196C149.411 42.4463 148.878 42.8829 148.418 43.4296C147.958 43.9763 147.591 44.6029 147.318 45.3096C147.044 46.0163 146.908 46.7496 146.908 47.5096C146.908 48.4029 147.058 49.0996 147.358 49.5996C147.664 50.0929 148.138 50.3396 148.778 50.3396C149.158 50.3396 149.531 50.2329 149.898 50.0196C150.264 49.8063 150.614 49.5063 150.948 49.1196C151.288 48.7329 151.604 48.2696 151.898 47.7296C152.191 47.1829 152.454 46.5796 152.688 45.9196L153.198 41.8296ZM152.548 47.5396C152.294 48.0729 152.014 48.5629 151.708 49.0096C151.408 49.4496 151.084 49.8263 150.738 50.1396C150.391 50.4529 150.028 50.6963 149.648 50.8696C149.268 51.0429 148.874 51.1296 148.468 51.1296C148.054 51.1296 147.688 51.0496 147.368 50.8896C147.054 50.7229 146.791 50.4896 146.578 50.1896C146.371 49.8896 146.214 49.5263 146.108 49.0996C146.001 48.6729 145.948 48.1929 145.948 47.6596C145.948 47.0796 146.021 46.5129 146.168 45.9596C146.321 45.3996 146.531 44.8696 146.798 44.3696C147.064 43.8696 147.384 43.4096 147.758 42.9896C148.131 42.5696 148.544 42.2063 148.998 41.8996C149.451 41.5929 149.934 41.3529 150.448 41.1796C150.961 41.0063 151.491 40.9196 152.038 40.9196C152.431 40.9196 152.801 40.9563 153.148 41.0296C153.501 41.0963 153.844 41.2163 154.178 41.3896L153.008 50.9996H152.548C152.414 50.9996 152.324 50.9629 152.278 50.8896C152.231 50.8163 152.208 50.7329 152.208 50.6396L152.548 47.5396Z" fill="black"/>
<path d="M157.739 44.3296C158.012 43.6763 158.309 43.1096 158.629 42.6296C158.955 42.1496 159.299 41.7696 159.659 41.4896C160.025 41.2096 160.405 41.0363 160.799 40.9696C161.192 40.9029 161.592 40.9496 161.999 41.1096L161.829 41.9996C161.375 41.8263 160.945 41.7863 160.539 41.8796C160.132 41.9663 159.749 42.1796 159.389 42.5196C159.035 42.8529 158.705 43.3063 158.399 43.8796C158.099 44.4529 157.829 45.1329 157.589 45.9196L156.979 50.9996H156.049L157.249 41.0196H157.679C157.912 41.0196 158.029 41.1396 158.029 41.3796L157.739 44.3296Z" fill="black"/>
<path d="M163.331 49.3296C163.331 49.2896 163.331 49.2396 163.331 49.1796C163.338 49.1196 163.344 49.0296 163.351 48.9096C163.364 48.7896 163.381 48.6363 163.401 48.4496C163.421 48.2563 163.451 48.0129 163.491 47.7196L164.171 42.0696H162.861C162.794 42.0696 162.741 42.0496 162.701 42.0096C162.661 41.9696 162.648 41.9129 162.661 41.8396L162.711 41.4696L164.281 41.3496L164.941 37.7896C164.954 37.7296 164.984 37.6763 165.031 37.6296C165.078 37.5829 165.134 37.5596 165.201 37.5596H165.661L165.191 41.3596H168.071L167.991 42.0696H165.111L164.421 47.6896C164.388 47.9629 164.358 48.1863 164.331 48.3596C164.311 48.5329 164.294 48.6763 164.281 48.7896C164.274 48.8963 164.268 48.9763 164.261 49.0296C164.261 49.0829 164.261 49.1229 164.261 49.1496C164.261 49.5829 164.361 49.8963 164.561 50.0896C164.768 50.2829 165.031 50.3796 165.351 50.3796C165.571 50.3796 165.764 50.3463 165.931 50.2796C166.104 50.2063 166.254 50.1296 166.381 50.0496C166.508 49.9629 166.611 49.8863 166.691 49.8196C166.771 49.7463 166.831 49.7096 166.871 49.7096C166.938 49.7096 166.988 49.7429 167.021 49.8096L167.201 50.2296C166.934 50.5096 166.611 50.7363 166.231 50.9096C165.851 51.0763 165.471 51.1596 165.091 51.1596C164.544 51.1596 164.114 51.0096 163.801 50.7096C163.494 50.4096 163.338 49.9496 163.331 49.3296Z" fill="black"/>
<path d="M169.735 44.6796H174.015L173.925 45.4596H169.625L169.735 44.6796Z" fill="black"/>
<path d="M183.334 41.8296C183.134 41.7563 182.928 41.7063 182.714 41.6796C182.501 41.6463 182.284 41.6296 182.064 41.6296C181.398 41.6296 180.761 41.7929 180.154 42.1196C179.548 42.4463 179.014 42.8829 178.554 43.4296C178.094 43.9763 177.728 44.6029 177.454 45.3096C177.181 46.0163 177.044 46.7496 177.044 47.5096C177.044 48.4029 177.194 49.0996 177.494 49.5996C177.801 50.0929 178.274 50.3396 178.914 50.3396C179.294 50.3396 179.668 50.2329 180.034 50.0196C180.401 49.8063 180.751 49.5063 181.084 49.1196C181.424 48.7329 181.741 48.2696 182.034 47.7296C182.328 47.1829 182.591 46.5796 182.824 45.9196L183.334 41.8296ZM182.684 47.5396C182.431 48.0729 182.151 48.5629 181.844 49.0096C181.544 49.4496 181.221 49.8263 180.874 50.1396C180.528 50.4529 180.164 50.6963 179.784 50.8696C179.404 51.0429 179.011 51.1296 178.604 51.1296C178.191 51.1296 177.824 51.0496 177.504 50.8896C177.191 50.7229 176.928 50.4896 176.714 50.1896C176.508 49.8896 176.351 49.5263 176.244 49.0996C176.138 48.6729 176.084 48.1929 176.084 47.6596C176.084 47.0796 176.158 46.5129 176.304 45.9596C176.458 45.3996 176.668 44.8696 176.934 44.3696C177.201 43.8696 177.521 43.4096 177.894 42.9896C178.268 42.5696 178.681 42.2063 179.134 41.8996C179.588 41.5929 180.071 41.3529 180.584 41.1796C181.098 41.0063 181.628 40.9196 182.174 40.9196C182.568 40.9196 182.938 40.9563 183.284 41.0296C183.638 41.0963 183.981 41.2163 184.314 41.3896L183.144 50.9996H182.684C182.551 50.9996 182.461 50.9629 182.414 50.8896C182.368 50.8163 182.344 50.7329 182.344 50.6396L182.684 47.5396Z" fill="black"/>
<path d="M187.355 48.9496C187.649 49.4763 188.009 49.8463 188.435 50.0596C188.862 50.2729 189.305 50.3796 189.765 50.3796C190.185 50.3796 190.575 50.2963 190.935 50.1296C191.302 49.9563 191.632 49.7229 191.925 49.4296C192.225 49.1363 192.489 48.7963 192.715 48.4096C192.949 48.0163 193.142 47.6029 193.295 47.1696C193.455 46.7363 193.575 46.2929 193.655 45.8396C193.742 45.3796 193.785 44.9329 193.785 44.4996C193.785 43.6063 193.615 42.9129 193.275 42.4196C192.935 41.9196 192.439 41.6696 191.785 41.6696C191.405 41.6696 191.022 41.7763 190.635 41.9896C190.255 42.2029 189.889 42.5029 189.535 42.8896C189.182 43.2763 188.849 43.7429 188.535 44.2896C188.222 44.8296 187.945 45.4329 187.705 46.0996L187.355 48.9496ZM187.865 44.5096C188.125 43.9696 188.415 43.4796 188.735 43.0396C189.062 42.5929 189.405 42.2129 189.765 41.8996C190.125 41.5796 190.502 41.3329 190.895 41.1596C191.289 40.9863 191.689 40.8996 192.095 40.8996C192.529 40.8996 192.909 40.9829 193.235 41.1496C193.562 41.3163 193.835 41.5529 194.055 41.8596C194.275 42.1596 194.442 42.5263 194.555 42.9596C194.669 43.3929 194.725 43.8763 194.725 44.4096C194.725 44.9229 194.672 45.4463 194.565 45.9796C194.459 46.5063 194.305 47.0196 194.105 47.5196C193.912 48.0129 193.672 48.4796 193.385 48.9196C193.105 49.3596 192.785 49.7429 192.425 50.0696C192.065 50.3963 191.669 50.6563 191.235 50.8496C190.809 51.0363 190.355 51.1296 189.875 51.1296C189.335 51.1296 188.835 51.0096 188.375 50.7696C187.922 50.5296 187.552 50.1763 187.265 49.7096L186.675 54.5196H185.755L187.395 41.0196H187.825C188.059 41.0196 188.175 41.1396 188.175 41.3796L187.865 44.5096Z" fill="black"/>
<path d="M197.668 48.9496C197.961 49.4763 198.321 49.8463 198.748 50.0596C199.174 50.2729 199.618 50.3796 200.078 50.3796C200.498 50.3796 200.888 50.2963 201.248 50.1296C201.614 49.9563 201.944 49.7229 202.238 49.4296C202.538 49.1363 202.801 48.7963 203.028 48.4096C203.261 48.0163 203.454 47.6029 203.608 47.1696C203.768 46.7363 203.888 46.2929 203.968 45.8396C204.054 45.3796 204.098 44.9329 204.098 44.4996C204.098 43.6063 203.928 42.9129 203.588 42.4196C203.248 41.9196 202.751 41.6696 202.098 41.6696C201.718 41.6696 201.334 41.7763 200.948 41.9896C200.568 42.2029 200.201 42.5029 199.848 42.8896C199.494 43.2763 199.161 43.7429 198.848 44.2896C198.534 44.8296 198.258 45.4329 198.018 46.0996L197.668 48.9496ZM198.178 44.5096C198.438 43.9696 198.728 43.4796 199.048 43.0396C199.374 42.5929 199.718 42.2129 200.078 41.8996C200.438 41.5796 200.814 41.3329 201.208 41.1596C201.601 40.9863 202.001 40.8996 202.408 40.8996C202.841 40.8996 203.221 40.9829 203.548 41.1496C203.874 41.3163 204.148 41.5529 204.368 41.8596C204.588 42.1596 204.754 42.5263 204.868 42.9596C204.981 43.3929 205.038 43.8763 205.038 44.4096C205.038 44.9229 204.984 45.4463 204.878 45.9796C204.771 46.5063 204.618 47.0196 204.418 47.5196C204.224 48.0129 203.984 48.4796 203.698 48.9196C203.418 49.3596 203.098 49.7429 202.738 50.0696C202.378 50.3963 201.981 50.6563 201.548 50.8496C201.121 51.0363 200.668 51.1296 200.188 51.1296C199.648 51.1296 199.148 51.0096 198.688 50.7696C198.234 50.5296 197.864 50.1763 197.578 49.7096L196.988 54.5196H196.068L197.708 41.0196H198.138C198.371 41.0196 198.488 41.1396 198.488 41.3796L198.178 44.5096Z" fill="black"/>
<path d="M23.0931 30.3219C23.0222 29.117 23.0686 27.9081 23.2315 26.7121C23.3757 25.6353 23.6589 24.5817 24.0741 23.5777C24.7971 21.8332 25.6732 20.1561 26.6921 18.5661C27.631 16.9839 28.6963 15.2632 29.0093 13.4222C29.4185 11.0157 27.8056 8.52502 26.4333 6.67803C24.4805 4.17177 22.2129 1.9273 19.6866 0C19.8606 2.39079 19.8284 4.79212 19.5903 7.17738C19.3241 9.40681 18.7781 11.5939 17.9653 13.687C17.5265 14.8458 17.0262 15.9805 16.4667 17.0861C16.2921 17.4351 16.2741 17.4471 15.8648 17.393L14.9681 17.2606C14.3361 17.1583 13.7102 17.044 13.0903 16.9056C10.868 16.4519 8.70939 15.7287 6.6625 14.7518C4.29316 13.5312 2.05986 12.0631 0 10.372C0.13868 12.7674 0.493203 15.1454 1.05926 17.4772C1.51705 19.654 2.36749 21.7294 3.56898 23.6017C4.16988 24.5444 5.03701 25.2877 6.06065 25.7375C7.01806 26.0872 8.01438 26.3195 9.02778 26.4294C11.1343 26.7061 13.2708 26.6941 15.3713 27.031C18.1957 27.4508 20.8638 28.5927 23.1171 30.3459" fill="#4F5BC6"/>
<path d="M45.2588 15.8895C45.2588 14.594 44.9318 13.6956 44.2778 13.1942C43.4312 12.6411 42.4282 12.3773 41.419 12.4422C40.6988 12.4384 39.9798 12.4988 39.2703 12.6227C38.6091 12.7405 37.9559 12.8993 37.3143 13.098C36.888 12.302 36.6803 11.4073 36.7125 10.505C37.5154 10.2496 38.339 10.0644 39.174 9.95147C40.0327 9.82184 40.8997 9.75548 41.768 9.75293C43.9507 9.75293 45.6139 10.2503 46.7574 11.245C47.8949 12.2376 48.4606 13.8319 48.4606 16.0158V26.5503C47.6963 26.7248 46.7634 26.9052 45.674 27.0917C44.5664 27.2782 43.445 27.3708 42.3217 27.3685C41.3467 27.3796 40.3736 27.2807 39.4208 27.0737C38.6286 26.9127 37.8785 26.589 37.218 26.1231C36.6207 25.6904 36.1408 25.1155 35.8217 24.4506C35.4772 23.6772 35.3106 22.8363 35.3342 21.99C35.3227 21.1262 35.5297 20.2736 35.9361 19.5113C36.3128 18.8098 36.8462 18.2045 37.4949 17.7425C38.1689 17.2625 38.9229 16.906 39.7217 16.6897C40.6016 16.4577 41.5081 16.3424 42.418 16.3467C43.1162 16.3467 43.6879 16.3467 44.1393 16.3949C44.5907 16.443 44.9639 16.4671 45.2708 16.5092L45.2588 15.8895ZM45.2588 19.0721C44.9338 19.024 44.5125 18.9818 44.0129 18.9397C43.5134 18.8976 43.0801 18.8736 42.731 18.8736C41.6455 18.8046 40.5646 19.0668 39.6315 19.6256C39.2746 19.888 38.9899 20.2362 38.8037 20.638C38.6175 21.0398 38.5358 21.482 38.5662 21.9238C38.5362 22.4612 38.6615 22.9959 38.9273 23.4639C39.1514 23.8202 39.4619 24.1141 39.8301 24.3183C40.202 24.5206 40.6119 24.6435 41.0338 24.6792C41.4475 24.7243 41.8634 24.7464 42.2796 24.7454C42.8004 24.7464 43.3208 24.7183 43.8384 24.6612C44.3193 24.6174 44.7962 24.5369 45.2648 24.4205L45.2588 19.0721Z" fill="black"/>
<path d="M53.2041 2.92434C53.4448 2.88222 53.7097 2.85214 54.0046 2.82808C54.2995 2.80401 54.5703 2.82808 54.811 2.82808C55.0518 2.82808 55.3226 2.82808 55.6296 2.82808C55.9365 2.82808 56.2314 2.88222 56.4541 2.92434V26.9893C56.1813 27.0371 55.906 27.0692 55.6296 27.0856C55.3226 27.0856 55.0277 27.1217 54.811 27.1217C54.5944 27.1217 54.3055 27.1217 54.0046 27.0856C53.7361 27.0686 53.4689 27.0365 53.2041 26.9893V2.92434ZM56.5323 18.3019L62.6893 10.1438C62.9722 10.1017 63.255 10.0716 63.5439 10.0476C63.8328 10.0235 64.1458 10.0115 64.4286 10.0115C64.7115 10.0115 65.0666 10.0115 65.3615 10.0476C65.6564 10.0837 65.9634 10.1017 66.2643 10.1438L60.9138 18.0071L67.1851 26.9652C66.8782 27.0074 66.5833 27.0435 66.3004 27.0615C66.0175 27.0796 65.6986 27.0976 65.4157 27.0976C65.1328 27.0976 64.8138 27.0976 64.4948 27.0615C64.1759 27.0254 63.893 27.0074 63.574 26.9652L56.5323 18.3019Z" fill="black"/>
<path d="M71.9751 19.3669C72.0233 21.2038 72.5007 22.5495 73.4075 23.4038C74.3143 24.2581 75.6544 24.6832 77.4279 24.6792C78.9408 24.6868 80.4415 24.4092 81.8515 23.861C82.0437 24.2427 82.1872 24.6469 82.2788 25.0643C82.3789 25.5132 82.4373 25.9703 82.4534 26.4299C81.69 26.7493 80.8923 26.9795 80.0761 27.1158C79.1278 27.2768 78.1671 27.3533 77.2052 27.3444C75.863 27.3779 74.5262 27.1616 73.2631 26.7067C72.2455 26.3316 71.3296 25.724 70.5888 24.9322C69.8479 24.1404 69.3024 23.1864 68.996 22.1464C68.6604 21.012 68.4961 19.8338 68.5085 18.6509C68.4986 17.469 68.6587 16.2919 68.9839 15.1555C69.2713 14.1253 69.767 13.165 70.4404 12.3339C71.1172 11.5257 71.9638 10.8766 72.92 10.4328C74.0292 9.94061 75.2337 9.70022 76.4469 9.72885C77.497 9.71174 78.539 9.91677 79.5043 10.3305C80.3492 10.7003 81.1 11.2555 81.7011 11.9549C82.3142 12.6797 82.7748 13.5207 83.0552 14.4275C83.3659 15.4307 83.5202 16.4758 83.5126 17.5259C83.5126 17.8327 83.5126 18.1576 83.5126 18.4945C83.5126 18.8314 83.4645 19.1262 83.4464 19.3669H71.9751ZM80.3168 16.9604C80.3128 16.3568 80.2216 15.757 80.046 15.1796C79.8927 14.6556 79.6482 14.1627 79.3237 13.7236C79.0024 13.3032 78.5912 12.96 78.12 12.7189C77.3238 12.3717 76.443 12.2658 75.587 12.4145C74.7311 12.5631 73.9377 12.9598 73.3052 13.5552C72.5327 14.5203 72.0804 15.7022 72.0112 16.9363L80.3168 16.9604Z" fill="black"/>
<path d="M87.7979 10.1434C88.0386 10.1013 88.2733 10.0712 88.502 10.0471C88.7359 10.0228 88.971 10.0107 89.2062 10.011C89.4314 10.0101 89.6564 10.0221 89.8803 10.0471C90.0909 10.0471 90.3136 10.1013 90.5543 10.1434C90.6205 10.4743 90.6867 10.9135 90.7529 11.473C90.8118 11.936 90.844 12.402 90.8492 12.8687C91.3515 12.0227 92.0362 11.2992 92.8534 10.751C93.8532 10.0871 95.0296 9.7391 96.2298 9.75232C98.1557 9.75232 99.5821 10.3058 100.497 11.4068C101.412 12.5078 101.881 14.1502 101.881 16.316V26.9768C101.608 27.0243 101.333 27.0564 101.057 27.0731C100.75 27.0731 100.455 27.1092 100.238 27.1092C100.021 27.1092 99.7266 27.1092 99.4316 27.0731C99.1632 27.0561 98.896 27.024 98.6312 26.9768V17.2004C98.6312 15.6482 98.3904 14.5051 97.909 13.7712C97.6559 13.4023 97.3103 13.1064 96.9068 12.9131C96.5033 12.7199 96.056 12.6361 95.6099 12.6702C95.014 12.6659 94.4231 12.7783 93.8705 13.0011C93.3157 13.2216 92.8208 13.57 92.4261 14.0178C91.9709 14.5433 91.6306 15.1581 91.427 15.8227C91.1562 16.6762 91.028 17.5686 91.0478 18.4638V26.9768C90.781 27.024 90.5118 27.0561 90.2414 27.0731C89.9465 27.0731 89.6816 27.1092 89.4409 27.1092C89.2002 27.1092 88.9233 27.1092 88.6164 27.0731C88.3419 27.0568 88.0686 27.0246 87.7979 26.9768V10.1434Z" fill="black"/>
<path d="M109.2 19.3664C109.24 21.2033 109.716 22.5489 110.626 23.4033C111.535 24.2515 112.871 24.6787 114.647 24.6787C116.162 24.687 117.665 24.4094 119.076 23.8605C119.271 24.241 119.415 24.6456 119.504 25.0637C119.611 25.5223 119.677 25.9893 119.702 26.4595C118.929 26.7807 118.121 27.0108 117.295 27.1454C116.347 27.3069 115.386 27.3835 114.424 27.374C113.084 27.4067 111.749 27.1904 110.488 26.7362C109.469 26.3637 108.552 25.7568 107.81 24.9647C107.069 24.1725 106.525 23.2172 106.221 22.1759C105.88 21.0425 105.714 19.8639 105.727 18.6805C105.717 17.4986 105.878 16.3214 106.203 15.1851C106.495 14.1554 106.992 13.1955 107.665 12.3634C108.338 11.5519 109.183 10.9004 110.139 10.4563C111.25 9.96347 112.457 9.72307 113.672 9.75239C114.72 9.73577 115.76 9.94079 116.723 10.354C117.568 10.7238 118.319 11.279 118.92 11.9784C119.53 12.7002 119.988 13.5369 120.268 14.439C120.582 15.4416 120.736 16.4871 120.725 17.5374C120.725 17.8442 120.725 18.1691 120.725 18.506C120.725 18.8429 120.677 19.1377 120.659 19.3784L109.2 19.3664ZM117.536 16.9599C117.537 16.3655 117.454 15.774 117.289 15.2031C117.141 14.6772 116.896 14.1835 116.567 13.7472C116.245 13.3268 115.834 12.9835 115.363 12.7425C114.567 12.3952 113.686 12.2893 112.83 12.438C111.974 12.5867 111.181 12.9833 110.548 13.5787C109.776 14.5439 109.323 15.7257 109.254 16.9599H117.536Z" fill="black"/>
<path d="M131.848 27.3684C130.664 27.3945 129.488 27.1668 128.4 26.7006C127.448 26.2758 126.607 25.6401 125.938 24.8416C125.264 24.0235 124.766 23.0753 124.475 22.0561C124.146 20.9367 123.98 19.7756 123.982 18.6088C123.971 17.4328 124.131 16.2614 124.457 15.1314C124.749 14.1109 125.247 13.1609 125.92 12.3399C126.591 11.5413 127.432 10.9021 128.381 10.4688C129.474 10.0162 130.645 9.7832 131.827 9.7832C133.01 9.7832 134.18 10.0162 135.273 10.4688C136.222 10.9021 137.063 11.5413 137.734 12.3399C138.407 13.1609 138.905 14.1109 139.197 15.1314C139.529 16.2605 139.695 17.4319 139.69 18.6088C139.701 19.7848 139.541 20.9562 139.215 22.0862C138.924 23.1053 138.426 24.0536 137.752 24.8717C137.084 25.6701 136.242 26.3059 135.291 26.7307C134.202 27.1865 133.028 27.4039 131.848 27.3684ZM131.848 24.7815C132.501 24.825 133.154 24.6962 133.741 24.4079C134.329 24.1196 134.83 23.682 135.194 23.139C135.99 21.756 136.366 20.1717 136.278 18.5787C136.278 16.6295 135.917 15.1154 135.194 14.0365C134.827 13.4976 134.324 13.0643 133.737 12.7794C133.15 12.4944 132.499 12.3678 131.848 12.4121C131.199 12.3657 130.548 12.4914 129.963 12.7766C129.377 13.0618 128.878 13.4964 128.514 14.0365C127.804 15.1154 127.449 16.6295 127.449 18.5787C127.361 20.1693 127.731 21.7517 128.514 23.139C128.875 23.6833 129.373 24.1221 129.959 24.4107C130.545 24.6992 131.197 24.8272 131.848 24.7815Z" fill="black"/>
<path d="M153.677 15.7267C153.677 14.4754 153.358 13.603 152.72 13.1157C151.902 12.5721 150.926 12.3141 149.946 12.3817C149.246 12.3758 148.547 12.4343 147.857 12.5562C147.216 12.6694 146.583 12.8242 145.961 13.0194C145.543 12.2467 145.335 11.3772 145.36 10.4986C146.145 10.2503 146.951 10.0692 147.767 9.95717C148.602 9.83277 149.445 9.76843 150.289 9.76465C152.411 9.76465 154.028 10.248 155.14 11.2146C156.251 12.1812 156.803 13.7273 156.795 15.8531V26.0807C156.052 26.2492 155.15 26.4236 154.086 26.6041C153.011 26.7856 151.921 26.8761 150.83 26.8748C149.882 26.8844 148.935 26.7876 148.008 26.5861C147.24 26.4276 146.513 26.1143 145.871 25.6656C145.28 25.2431 144.806 24.6781 144.493 24.0231C144.15 23.2684 143.986 22.4451 144.011 21.6166C143.989 20.8107 144.167 20.0118 144.529 19.2915C144.892 18.5712 145.427 17.952 146.088 17.4895C146.754 17.0181 147.5 16.6715 148.291 16.4667C149.143 16.2397 150.021 16.1264 150.903 16.1298C151.583 16.1298 152.142 16.1298 152.576 16.178C153.009 16.2261 153.382 16.2502 153.677 16.2923V15.7267ZM153.677 18.8191C153.36 18.775 152.959 18.7329 152.473 18.6928C151.986 18.6506 151.571 18.6266 151.228 18.6266C150.173 18.5607 149.124 18.8167 148.218 19.3606C147.866 19.616 147.584 19.9575 147.401 20.3524C147.218 20.7473 147.139 21.1825 147.171 21.6166C147.142 22.1391 147.263 22.6591 147.52 23.1147C147.738 23.4617 148.04 23.7474 148.399 23.9449C148.761 24.1391 149.158 24.2598 149.567 24.2999C149.988 24.342 150.391 24.3601 150.77 24.3601C151.277 24.3601 151.783 24.334 152.287 24.2818C152.754 24.2377 153.217 24.1572 153.671 24.0412L153.677 18.8191Z" fill="#4F5BC6"/>
<path d="M161.495 10.1491C161.71 10.1044 161.927 10.0722 162.145 10.0528C162.373 10.0286 162.602 10.0166 162.831 10.0167C163.056 10.0172 163.281 10.0293 163.505 10.0528C163.73 10.0714 163.953 10.1035 164.173 10.1491C164.212 10.2786 164.238 10.4116 164.252 10.5461C164.288 10.7687 164.318 11.0094 164.348 11.2621C164.378 11.5148 164.414 11.7614 164.444 11.9961C164.474 12.2307 164.492 12.3811 164.492 12.4413C164.716 12.0893 164.972 11.759 165.257 11.4546C165.574 11.1211 165.934 10.8317 166.328 10.5943C166.765 10.3294 167.237 10.1269 167.73 9.99265C168.297 9.83746 168.882 9.76253 169.47 9.77005C170.378 9.76342 171.28 9.92455 172.13 10.2453C172.941 10.564 173.664 11.0737 174.236 11.7313C174.863 12.4793 175.33 13.3474 175.609 14.2822C175.96 15.4668 176.127 16.6987 176.102 17.9341C176.102 20.7417 175.342 22.9356 173.821 24.5159C172.3 26.0961 170.148 26.8883 167.363 26.8923C166.882 26.8924 166.402 26.8602 165.925 26.796C165.494 26.7438 165.067 26.6593 164.649 26.5433V34.0275C164.38 34.0736 164.109 34.1057 163.836 34.1238C163.553 34.1238 163.289 34.1539 163.06 34.1539C162.831 34.1539 162.56 34.1539 162.278 34.1238C162.015 34.1069 161.754 34.0748 161.495 34.0275V10.1491ZM164.649 23.824C165.052 23.9745 165.469 24.0813 165.895 24.1429C166.445 24.2157 167 24.2479 167.556 24.2391C168.275 24.2483 168.989 24.1239 169.662 23.8721C170.294 23.6348 170.858 23.2465 171.305 22.7411C171.794 22.1776 172.163 21.5205 172.389 20.8099C172.671 19.9194 172.806 18.9885 172.786 18.0544C172.857 16.6436 172.532 15.2411 171.847 14.0055C171.515 13.5027 171.053 13.0985 170.511 12.8349C169.969 12.5714 169.366 12.4583 168.766 12.5074C168.242 12.506 167.723 12.604 167.237 12.7962C166.743 12.987 166.296 13.2802 165.925 13.6565C165.523 14.0727 165.21 14.566 165.004 15.1065C164.754 15.7734 164.633 16.482 164.649 17.1941V23.824Z" fill="#4F5BC6"/>
<path d="M180.314 10.1491C180.529 10.1044 180.746 10.0723 180.964 10.0529C181.192 10.0287 181.421 10.0166 181.651 10.0168C181.876 10.0173 182.101 10.0293 182.325 10.0529C182.549 10.0719 182.772 10.104 182.993 10.1491C183.031 10.2787 183.058 10.4116 183.071 10.5462C183.101 10.7688 183.137 11.0094 183.167 11.2621C183.197 11.5148 183.233 11.7615 183.264 11.9961C183.294 12.2307 183.312 12.3811 183.312 12.4413C183.535 12.0894 183.791 11.759 184.076 11.4546C184.393 11.1211 184.753 10.8318 185.147 10.5943C185.584 10.3295 186.056 10.127 186.55 9.9927C187.116 9.83712 187.702 9.76219 188.289 9.7701C189.197 9.76348 190.099 9.92461 190.949 10.2454C191.761 10.564 192.483 11.0738 193.056 11.7314C193.682 12.4794 194.149 13.3474 194.428 14.2823C194.78 15.4669 194.946 16.6987 194.921 17.9341C194.921 20.7417 194.161 22.9356 192.64 24.5159C191.12 26.0962 188.967 26.8883 186.183 26.8923C185.709 26.8894 185.237 26.8552 184.768 26.7901C184.337 26.7384 183.91 26.6539 183.492 26.5374V34.0276C183.223 34.0737 182.952 34.1058 182.68 34.1239C182.397 34.1239 182.132 34.1539 181.897 34.1539C181.663 34.1539 181.404 34.1539 181.121 34.1239C180.858 34.107 180.597 34.0748 180.339 34.0276L180.314 10.1491ZM183.468 23.824C183.871 23.9745 184.289 24.0814 184.714 24.1429C185.265 24.2157 185.82 24.2479 186.375 24.2392C187.094 24.2483 187.808 24.1239 188.482 23.8722C189.112 23.6362 189.675 23.2476 190.119 22.7411C190.609 22.1781 190.98 21.521 191.208 20.8099C191.491 19.9194 191.625 18.9885 191.605 18.0545C191.676 16.6437 191.351 15.2411 190.666 14.0055C190.334 13.5028 189.873 13.0985 189.331 12.835C188.789 12.5714 188.186 12.4583 187.585 12.5075C187.062 12.506 186.543 12.604 186.056 12.7963C185.571 12.9885 185.132 13.2818 184.768 13.6566C184.366 14.0728 184.053 14.566 183.847 15.1065C183.597 15.7734 183.477 16.482 183.492 17.1941L183.468 23.824Z" fill="#4F5BC6"/>
</svg>
